<svg xmlns="http://www.w3.org/2000/svg" viewBox="0 0 220 220"><defs><style>.cls-1{fill:#3980f5;}</style></defs><g id="Camada_2" data-name="Camada 2"><g id="Camada_1-2" data-name="Camada 1"><path class="cls-1" d="M137,78.13c0,15.4,17.21,26.73,39.86,32.84,11.1,3.17,23.33,7.25,36.47,12.23,2.25.9,4.46,1.8,6.65,2.7V52.35a200.22,200.22,0,0,0-35.19-3.44C152.87,48.91,137,55.7,137,78.13Z"/><path class="cls-1" d="M106.51,220H205a15,15,0,0,0,15-15V188.94c-7.13-6.65-17.43-11.89-29.3-15.45C179.37,170.09,167.14,166,154,161a321.73,321.73,0,0,1-36.47-15.85,72.89,72.89,0,0,1-28.32-25.6c-7.7-11.1-11.55-24.46-11.55-39.64,0-28.31,9.52-49.6,28.32-63.87A99.78,99.78,0,0,1,139.44,0H15A15,15,0,0,0,0,15V205a15,15,0,0,0,15,15h87.72a6,6,0,0,1,1.91-.3A7.25,7.25,0,0,1,106.51,220Z"/></g></g></svg>